<svg width="16" height="16" viewBox="0 0 16 16" fill="none" xmlns="http://www.w3.org/2000/svg">
<path d="M8.24795 7.05591H7.75195V7.80791H8.24795V7.05591Z" fill="white"/>
<path d="M7.99995 1.19995C4.24795 1.19995 1.19995 4.24795 1.19995 7.99995C1.19995 11.7519 4.24795 14.7999 7.99995 14.7999C11.7519 14.7999 14.7999 11.7519 14.7999 7.99995C14.7999 4.24795 11.7519 1.19995 7.99995 1.19995ZM2.51195 8.34395V7.80795H4.46395V8.34395H2.51195ZM6.15995 6.55195L5.96795 7.06395H4.73595V9.05595H6.15995V10.0559H3.99195C3.69595 10.0559 3.48795 9.84795 3.48795 9.55995V8.39995H4.52795V7.75195H3.48795V6.55195C3.48795 6.26395 3.69595 6.05595 3.99195 6.05595H6.15995V6.55195ZM9.56795 10.0479H8.34395L8.00795 8.79995H7.75995V10.0479H6.50395V6.04795H9.00795C9.29595 6.04795 9.50395 6.25595 9.50395 6.54395V8.11195C9.50395 8.30395 9.35995 8.51195 9.17595 8.55995L9.56795 9.54395V10.0479ZM12.6239 10.0479H9.79995V9.02395L11.1439 7.19195V7.05595H9.99195L9.79995 6.54395V6.04795H12.5759V7.07995L12.0799 7.75195H11.0239V8.39995H11.6079L11.2239 8.91995V9.05595H12.6319V10.0479H12.6239ZM11.0719 8.34395V7.80795H13.0239V8.34395H11.0719Z" fill="white"/>
<path d="M8 0C3.584 0 0 3.584 0 8C0 12.416 3.584 16 8 16C12.416 16 16 12.416 16 8C16 3.584 12.416 0 8 0ZM8 15.2C4.032 15.2 0.8 11.968 0.8 8C0.8 4.032 4.032 0.8 8 0.8C11.968 0.8 15.2 4.032 15.2 8C15.2 11.968 11.968 15.2 8 15.2Z" fill="white"/>
</svg>
